:version 1.10
:name ASF
:units
  mass 1
  length 1
  angle deg
:documentation
  ASF file generated by Kaydara
:root
  axis xyz
  order  tx ty tz rx ry rz
  position 0 0 0
  orientation 0 0 0
:bonedata
  begin
    id 1
    name lfemurDummy
    direction 0.61522 -0.761478 0.204097
    length 5.68318
    axis 0 -0 0 xyz
  end
  begin
    id 2
    name lfemur
    direction 0.34202 -0.939693 -5.84747e-008
    length 16.9147
    axis 0 -0 20 xyz
    dof rx ry rz
    limits( -inf , inf )
( -inf , inf )
( -inf , inf )

  end
  begin
    id 3
    name ltibia
    direction 0.34202 -0.939693 1.20839e-009
    length 18.0532
    axis 0 -0 20 xyz
    dof rz ry rx
    limits( -inf , inf )
( -inf , inf )
( -inf , inf )

  end
  begin
    id 4
    name lfoot
    direction 0.0841971 -0.23133 0.969225
    length 5.23822
    axis -90 7.62852e-016 20 xyz
    dof ry rx rz
    limits( -inf , inf )
( -inf , inf )
( -inf , inf )

  end
  begin
    id 5
    name ltoes
    direction 0 0 0
    length 0
    axis 0 0 0 xyz
    dof rz ry rx
    limits( -inf , inf )
( -inf , inf )
( -inf , inf )

  end
  begin
    id 6
    name rfemurDummy
    direction -0.625247 -0.75382 0.202044
    length 5.74091
    axis 0 -0 0 xyz
  end
  begin
    id 7
    name rfemur
    direction -0.34202 -0.939693 -1.47013e-008
    length 16.4922
    axis 0 -0 -20 xyz
    dof rx ry rz
    limits( -inf , inf )
( -inf , inf )
( -inf , inf )

  end
  begin
    id 8
    name rtibia
    direction -0.34202 -0.939693 -7.74345e-010
    length 18.2421
    axis 0 -0 -20 xyz
    dof rz ry rx
    limits( -inf , inf )
( -inf , inf )
( -inf , inf )

  end
  begin
    id 9
    name rfoot
    direction -0.124331 -0.341598 0.931586
    length 5.45787
    axis -90 -7.62852e-016 -20 xyz
    dof ry rx rz
    limits( -inf , inf )
( -inf , inf )
( -inf , inf )

  end
  begin
    id 10
    name rtoes
    direction 0 0 0
    length 0
    axis 0 0 0 xyz
    dof rz ry rx
    limits( -inf , inf )
( -inf , inf )
( -inf , inf )

  end
  begin
    id 11
    name lowerbackDummy
    direction 0 0 0
    length 0
    axis 0 -0 0 xyz
  end
  begin
    id 12
    name lowerback
    direction -0.0218484 0.994884 -0.0986304
    length 4.45607
    axis 0 -0 0 xyz
    dof rx ry rz
    limits( -inf , inf )
( -inf , inf )
( -inf , inf )

  end
  begin
    id 13
    name upperback
    direction -0.00973057 0.999717 -0.0217111
    length 4.47449
    axis 0 -0 0 xyz
    dof rx ry rz
    limits( -inf , inf )
( -inf , inf )
( -inf , inf )

  end
  begin
    id 14
    name thorax
    direction -0.000928171 0.999699 0.0245198
    length 4.50973
    axis 0 -0 0 xyz
    dof rx ry rz
    limits( -inf , inf )
( -inf , inf )
( -inf , inf )

  end
  begin
    id 15
    name rclavicle
    direction -0.9009 0.425937 -0.0834055
    length 7.28587
    axis 0 -0 0 xyz
    dof rx ry rz
    limits( -inf , inf )
( -inf , inf )
( -inf , inf )

  end
  begin
    id 16
    name rhumerus
    direction -1 -2.23604e-007 -1.42637e-007
    length 13.5704
    axis 180 30 90 xyz
    dof rx ry rz
    limits( -inf , inf )
( -inf , inf )
( -inf , inf )

  end
  begin
    id 17
    name rradius
    direction -1 5.68281e-008 -4.4952e-007
    length 8.06782
    axis 180 30 90 xyz
    dof rz ry rx
    limits( -inf , inf )
( -inf , inf )
( -inf , inf )

  end
  begin
    id 18
    name rwrist
    direction -1 1.51393e-007 1.38143e-007
    length 4.03391
    axis -90 -90 0 xyz
    dof rz rx ry
    limits( -inf , inf )
( -inf , inf )
( -inf , inf )

  end
  begin
    id 19
    name rthumb
    direction 0 0 0
    length 0
    axis 0 0 0 xyz
    dof ry rx rz
    limits( -inf , inf )
( -inf , inf )
( -inf , inf )

  end
  begin
    id 20
    name rhand
    direction -1 -3.34077e-007 -5.59631e-007
    length 1.29744
    axis -90 -90 0 xyz
    dof ry rx rz
    limits( -inf , inf )
( -inf , inf )
( -inf , inf )

  end
  begin
    id 21
    name rfingers
    direction 0 0 0
    length 0
    axis 0 0 0 xyz
    dof rz ry rx
    limits( -inf , inf )
( -inf , inf )
( -inf , inf )

  end
  begin
    id 22
    name lclavicle
    direction 0.940017 0.332249 -0.0773232
    length 8.29589
    axis 0 -0 0 xyz
    dof rx ry rz
    limits( -inf , inf )
( -inf , inf )
( -inf , inf )

  end
  begin
    id 23
    name lhumerus
    direction 1 7.41158e-008 -1.44768e-008
    length 12.0042
    axis 180 -30 -90 xyz
    dof rx ry rz
    limits( -inf , inf )
( -inf , inf )
( -inf , inf )

  end
  begin
    id 24
    name lradius
    direction 1 -1.32972e-007 3.10821e-007
    length 8.1902
    axis 180 -30 -90 xyz
    dof rz ry rx
    limits( -inf , inf )
( -inf , inf )
( -inf , inf )

  end
  begin
    id 25
    name lwrist
    direction 1 3.08957e-007 4.01394e-007
    length 4.09509
    axis -90 90 0 xyz
    dof rz rx ry
    limits( -inf , inf )
( -inf , inf )
( -inf , inf )

  end
  begin
    id 26
    name lthumb
    direction 0 0 0
    length 0
    axis 0 0 0 xyz
    dof ry rx rz
    limits( -inf , inf )
( -inf , inf )
( -inf , inf )

  end
  begin
    id 27
    name lhand
    direction 1 -1.64125e-007 -6.99514e-007
    length 1.37229
    axis -90 90 0 xyz
    dof ry rx rz
    limits( -inf , inf )
( -inf , inf )
( -inf , inf )

  end
  begin
    id 28
    name lfingers
    direction 0 0 0
    length 0
    axis 0 0 0 xyz
    dof rz ry rx
    limits( -inf , inf )
( -inf , inf )
( -inf , inf )

  end
  begin
    id 29
    name lowerneck
    direction -0.030798 0.998024 0.0547665
    length 3.93918
    axis 0 -0 0 xyz
    dof rx ry rz
    limits( -inf , inf )
( -inf , inf )
( -inf , inf )

  end
  begin
    id 30
    name upperneck
    direction 0.0531588 0.996611 -0.0627736
    length 3.95491
    axis 0 -0 0 xyz
    dof rx ry rz
    limits( -inf , inf )
( -inf , inf )
( -inf , inf )

  end
  begin
    id 31
    name head
    direction 0 0 0
    length 0
    axis 0 0 0 xyz
    dof rx ry rz
    limits( -inf , inf )
( -inf , inf )
( -inf , inf )

  end
:hierarchy
  begin
    root lfemurDummy rfemurDummy lowerbackDummy
    lfemurDummy lfemur
    lfemur ltibia
    ltibia lfoot
    lfoot ltoes
    rfemurDummy rfemur
    rfemur rtibia
    rtibia rfoot
    rfoot rtoes
    lowerbackDummy lowerback
    lowerback upperback
    upperback thorax
    thorax rclavicle lclavicle lowerneck
    rclavicle rhumerus
    rhumerus rradius
    rradius rwrist
    rwrist rthumb rhand
    rhand rfingers
    lclavicle lhumerus
    lhumerus lradius
    lradius lwrist
    lwrist lthumb lhand
    lhand lfingers
    lowerneck upperneck
    upperneck head
  end

:SAMPLES-PER-SECOND 30
:FULLY-SPECIFIED
:DEGREES
53
root  16.52106638 38.12977648 -10.00564455 38.09700012 -84.70629883 -30.147995
lowerback  10.46249962 1.279870033 -0.6273049712
upperback  4.988059998 1.462460041 0.2771959901
thorax  -0.701613009 0.6418420076 0.4813880026
lowerneck  -15.78600025 4.574510098 -0.3384070098
upperneck  -0.4249689877 6.02933979 -0.5802459717
head  2.605200052 2.921880007 0.2928749919
lclavicle  0 -9.442270133e-015 7.951389973e-016
lhumerus  4.529550076 -11.44690037 80.19599915
lradius  2.88156312e-031 -2.040940475e-031 144.6909943
lwrist  -7.062250077e-031 -3.531125038e-031 1.26812005
lhand  -1.496451383e-031 -27.76390076 20.11240005
lfingers  90 7.125020027 -90
lthumb  89.89689403 5.08795885 91.16245106
rclavicle  0 -9.442270133e-015 7.951389973e-016
rhumerus  21.86849976 21.9878006 -77.30400085
rradius  -2.608284681e-031 2.380272055e-031 137.6170044
rwrist  0 -0 -6.215109825
rhand  -7.920061211e-032 -33.2840004 9.303460121
rfingers  -90 -7.125020027 -90
rthumb  -92.93752616 -24.25625642 -97.11982154
rfemur  -10.83349991 11.11299992 17.36490059
rtibia  -0 0 48.81909943
rfoot  -0 -34.2118988 -9.455459595
rtoes  5.373923086 19.29304026 -105.8922705
lfemur  -32.06539917 2.685950041 -4.228700161
ltibia  -0 0 73.83550262
lfoot  4.480882138e-032 -9.9187603 -3.841350079
ltoes  -4.250644065 -19.5611806 -102.515957
54
root  16.6519105 38.05355463 -10.03131116 39.72099304 -85.00839996 -31.3789978
lowerback  10.7208004 1.287760019 -1.195090055
upperback  5.160299778 1.404510021 0.2296990007
thorax  -0.674703002 0.5987300277 0.7546619773
lowerneck  -16.37590027 4.653079987 0.2206310034
upperneck  -1.323410034 5.986020088 -0.6021419764
head  2.422009945 2.887680054 0.1859380007
lclavicle  0 -9.442270133e-015 7.951389973e-016
lhumerus  4.203750134 -11.30119991 80.72090149
lradius  2.879210419e-031 -2.044258154e-031 144.625
lwrist  0 -3.531125038e-031 1.902819991
lhand  -1.496451383e-031 -27.76390076 20.11240005
lfingers  90 7.125020027 -90
lthumb  89.89689403 5.08795885 91.16245106
rclavicle  0 -9.442270133e-015 7.951389973e-016
rhumerus  21.57449913 21.8118 -77.20210266
rradius  -2.609696562e-031 2.378724005e-031 137.651001
rwrist  0 -1.765562519e-031 -6.483620167
rhand  -7.920061211e-032 -33.2840004 9.303460121
rfingers  -90 -7.125020027 -90
rthumb  -92.93752616 -24.25625642 -97.11982154
rfemur  -11.8295002 11.07159996 17.04879951
rtibia  -0 0 49.3492012
rfoot  -0 -34.62919998 -8.907389641
rtoes  5.373923086 19.29304026 -105.8922705
lfemur  -33.4367981 2.231359959 -3.899490118
ltibia  -0 0 73.56860352
lfoot  4.502033233e-032 -11.35529995 -3.329799891
ltoes  -4.250644065 -19.5611806 -102.515957
55
root  16.75775483 37.97466548 -10.03677789 40.28700256 -85.14009857 -31.55099487
lowerback  10.78579998 1.20630002 -1.563949943
upperback  5.374149799 1.248430014 0.1241410002
thorax  -0.48942101 0.5085719824 0.8711649776
lowerneck  -16.98329926 4.689829826 0.8701980114
upperneck  -2.114749908 5.861670017 -0.5871800184
head  2.279609919 2.808860064 0.07224489748
lclavicle  0 -9.442270133e-015 7.951389973e-016
lhumerus  4.20593977 -11.21189976 81.06349945
lradius  2.865048736e-031 -2.064059053e-031 144.2299957
lwrist  -3.531125038e-031 -0 2.546250105
lhand  -1.496451383e-031 -27.76390076 20.11240005
lfingers  90 7.125020027 -90
lthumb  89.89689403 5.08795885 91.16245106
rclavicle  0 -9.442270133e-015 7.951389973e-016
rhumerus  21.24469948 21.65640068 -77.20619965
rradius  -2.607951856e-031 2.380636712e-031 137.6089935
rwrist  7.062250077e-031 -0 -6.753530025
rhand  -7.920061211e-032 -33.2840004 9.303460121
rfingers  -90 -7.125020027 -90
rthumb  -92.93752616 -24.25625642 -97.11982154
rfemur  -12.77649975 10.68529987 16.81579971
rtibia  -0 0 49.94929886
rfoot  -0 -35.02769852 -8.751779556
rtoes  5.373923086 19.29304026 -105.8922705
lfemur  -34.75500107 1.611590028 -3.583679914
ltibia  -0 0 73.03990173
lfoot  4.522520399e-032 -12.58240032 -2.823820114
ltoes  -4.250644065 -19.5611806 -102.515957
56
root  16.82679935 37.9071123 -10.03313365 37.36199951 -85.22540283 -28.35600281
lowerback  10.81960011 1.111099958 -2.12071991
upperback  5.615869999 1.057690024 0.03620830178
thorax  -0.2585240006 0.3950749934 1.115530014
lowerneck  -17.57699966 4.594339848 0.9816409945
upperneck  -2.714540005 5.652619839 -0.1834769994
head  2.168179989 2.703069925 0.1723009944
lclavicle  0 -9.442270133e-015 7.951389973e-016
lhumerus  4.30618 -11.28530025 81.60209656
lradius  2.843496739e-031 -2.093650002e-031 143.6360016
lwrist  -3.531125038e-031 -1.765562519e-031 3.061549902
lhand  -1.496451383e-031 -27.76390076 20.11240005
lfingers  90 7.125020027 -90
lthumb  89.89689403 5.08795885 91.16245106
rclavicle  0 -9.442270133e-015 7.951389973e-016
rhumerus  20.73889923 21.64819908 -77.22299957
rradius  -2.601627394e-031 2.387546636e-031 137.4570007
rwrist  7.062250077e-031 -3.531125038e-031 -6.743440151
rhand  -7.920061211e-032 -33.2840004 9.303460121
rfingers  -90 -7.125020027 -90
rthumb  -92.93752616 -24.25625642 -97.11982154
rfemur  -13.46790028 10.10200024 16.4144001
rtibia  -0 0 50.53939819
rfoot  -0 -35.32369995 -8.893420219
rtoes  5.373923086 19.29304026 -105.8922705
lfemur  -35.80329895 0.7974860072 -3.513109922
ltibia  -0 0 72.23200226
lfoot  4.543356666e-032 -13.71000004 -2.64812994
ltoes  -4.250644065 -19.5611806 -102.515957
57
root  16.87375617 37.83666656 -10.01957796 35.25500488 -85.1576004 -26.03900146
lowerback  10.83539963 0.9606159925 -2.464590073
upperback  5.810060024 0.818039 -0.01704560034
thorax  -0.05952379853 0.2610990107 1.280629992
lowerneck  -17.80439949 4.492400169 0.7370520234
upperneck  -3.38045001 5.511499882 0.4558460116
head  1.951189995 2.643199921 0.4030430019
lclavicle  0 -9.442270133e-015 7.951389973e-016
lhumerus  4.262320042 -11.31750011 82.19300079
lradius  2.822861045e-031 -2.121390949e-031 143.0749969
lwrist  -7.062250077e-031 -1.765562519e-031 3.631269932
lhand  -1.496451383e-031 -27.76390076 20.11240005
lfingers  90 7.125020027 -90
lthumb  89.89689403 5.08795885 91.16245106
rclavicle  0 -9.442270133e-015 7.951389973e-016
rhumerus  20.04610062 21.71419907 -77.40380096
rradius  -2.593026729e-031 2.396884732e-031 137.2510071
rwrist  7.062250077e-031 -3.531125038e-031 -6.677629948
rhand  -7.920061211e-032 -33.2840004 9.303460121
rfingers  -90 -7.125020027 -90
rthumb  -92.93752616 -24.25625642 -97.11982154
rfemur  -14.00529957 9.535329819 16.18190002
rtibia  -0 0 51.04000092
rfoot  -0 -35.69800186 -8.96078968
rtoes  5.373923086 19.29304026 -105.8922705
lfemur  -36.69950104 0.005684940144 -3.295609951
ltibia  -0 0 71.20870209
lfoot  4.563851843e-032 -14.72770023 -2.973730087
ltoes  -4.250644065 -19.5611806 -102.515957
58
root  16.90922234 37.76422335 -9.995155635 35.44599915 -84.89399719 -25.97999573
lowerback  10.73600006 0.7588840127 -2.428420067
upperback  5.90790987 0.5552679896 -0.06459309906
thorax  0.1077470034 0.1272680014 1.240090013
lowerneck  -17.54669952 4.414569855 0.6245740056
upperneck  -4.144740105 5.401690006 0.9735860229
head  1.626620054 2.593660116 0.559179008
lclavicle  0 -9.442270133e-015 7.951389973e-016
lhumerus  4.299870014 -11.24629974 82.54319763
lradius  2.796883862e-031 -2.155524229e-031 142.3789978
lwrist  -7.062250077e-031 -1.765562519e-031 4.271659851
lhand  -1.496451383e-031 -27.76390076 20.11240005
lfingers  90 7.125020027 -90
lthumb  89.89689403 5.08795885 91.16245106
rclavicle  0 -9.442270133e-015 7.951389973e-016
rhumerus  19.19790077 21.72929955 -77.78730011
rradius  -2.583299704e-031 2.40736509e-031 137.0189972
rwrist  7.062250077e-031 -1.765562519e-031 -6.595510006
rhand  -7.920061211e-032 -33.2840004 9.303460121
rfingers  -90 -7.125020027 -90
rthumb  -92.93752616 -24.25625642 -97.11982154
rfemur  -14.49919987 9.038550377 16.30380058
rtibia  -0 0 51.39509964
rfoot  -0 -36.24039841 -9.36645031
rtoes  5.373923086 19.29304026 -105.8922705
lfemur  -37.61880112 -0.6592789888 -2.838589907
ltibia  -0 0 70.01080322
lfoot  4.584808104e-032 -15.69309998 -3.546839952
ltoes  -4.250644065 -19.5611806 -102.515957
